<?xml version="1.0" encoding="UTF-8"?>
<svg xmlns="http://www.w3.org/2000/svg" xmlns:xlink="http://www.w3.org/1999/xlink" width="16px" height="16px" viewBox="0 0 16 16" version="1.1">
<g id="surface1">
<path style=" stroke:none;fill-rule:nonzero;fill:#d0d0d0;fill-opacity:1;" d="M 12.601562 9.832031 C 12.601562 9.984375 12.542969 10.121094 12.429688 10.230469 L 8.429688 14.230469 C 8.316406 14.34375 8.183594 14.402344 8.027344 14.402344 C 7.875 14.402344 7.742188 14.34375 7.628906 14.230469 L 3.628906 10.230469 C 3.515625 10.121094 3.457031 9.984375 3.457031 9.832031 C 3.457031 9.675781 3.515625 9.542969 3.628906 9.429688 C 3.742188 9.316406 3.875 9.257812 4.027344 9.257812 L 12.027344 9.257812 C 12.183594 9.257812 12.316406 9.316406 12.429688 9.429688 C 12.542969 9.542969 12.601562 9.675781 12.601562 9.832031 Z M 12.601562 6.402344 C 12.601562 6.558594 12.542969 6.691406 12.429688 6.804688 C 12.316406 6.917969 12.183594 6.972656 12.027344 6.972656 L 4.027344 6.972656 C 3.875 6.972656 3.742188 6.917969 3.628906 6.804688 C 3.515625 6.691406 3.457031 6.558594 3.457031 6.402344 C 3.457031 6.246094 3.515625 6.113281 3.628906 6 L 7.628906 2 C 7.742188 1.886719 7.875 1.832031 8.027344 1.832031 C 8.183594 1.832031 8.316406 1.886719 8.429688 2 L 12.429688 6 C 12.542969 6.113281 12.601562 6.246094 12.601562 6.402344 Z M 12.601562 6.402344 "/>
</g>
</svg>
